<svg width="205" height="48" viewBox="0 0 205 48" fill="none" xmlns="http://www.w3.org/2000/svg">
<path d="M202.412 16.4748C202.363 17.5993 202.131 18.6742 201.718 19.6994C201.321 20.7081 200.734 21.6094 199.957 22.4031C199.196 23.1968 198.237 23.817 197.079 24.2634C195.938 24.7099 194.607 24.9332 193.086 24.9332C191.631 24.9332 190.266 24.7265 188.993 24.313C187.72 23.8831 186.595 23.2547 185.62 22.4279C184.661 21.6011 183.908 20.5841 183.363 19.377C182.833 18.1698 182.569 16.789 182.569 15.2346C182.569 13.6802 182.842 12.2994 183.387 11.0923C183.933 9.88511 184.694 8.86813 185.669 8.04131C186.662 7.2145 187.803 6.59439 189.092 6.18098C190.399 5.75103 191.821 5.53606 193.359 5.53606C195.409 5.53606 197.179 5.85025 198.667 6.47863C200.155 7.10701 201.354 7.9669 202.264 9.0583C203.173 10.1497 203.76 11.4147 204.025 12.8534H198.841C198.675 12.225 198.336 11.6876 197.824 11.2411C197.328 10.7781 196.699 10.4308 195.938 10.1993C195.194 9.95126 194.343 9.82723 193.384 9.82723C192.226 9.82723 191.226 10.0339 190.382 10.4473C189.539 10.8442 188.886 11.4478 188.423 12.2581C187.96 13.0518 187.728 14.044 187.728 15.2346C187.728 16.4418 187.976 17.4587 188.472 18.2856C188.968 19.1124 189.671 19.7325 190.581 20.1459C191.507 20.5593 192.59 20.766 193.83 20.766C195.037 20.766 196.104 20.6006 197.03 20.2699C197.956 19.9227 198.692 19.4183 199.237 18.7568C199.8 18.0954 200.122 17.3016 200.205 16.3756L202.412 16.4748ZM194.326 18.5336V14.9122H204.198V24.5363H200.552L199.833 17.1694L200.8 18.5336H194.326Z" fill="#21262B"/>
<path d="M176.996 20.9396L175.408 21.2621V5.9329H180.394V24.5363H173.92L163.18 9.2319L164.743 8.90944V24.5363H159.757V5.9329H166.404L176.996 20.9396Z" fill="#21262B"/>
<path d="M151.654 5.9329H156.788V24.5363H151.654V5.9329Z" fill="#21262B"/>
<path d="M135.518 13.5479H149.012V17.8887H135.518V13.5479ZM149.483 5.9329V10.2737H135.692L138.148 7.81804V24.5363H133.013V5.9329H149.483Z" fill="#21262B"/>
<path d="M119.797 24.9332C117.597 24.9332 115.663 24.528 113.993 23.7177C112.339 22.9075 111.049 21.7747 110.123 20.3195C109.214 18.8643 108.759 17.1694 108.759 15.2346C108.759 13.2999 109.214 11.6049 110.123 10.1497C111.049 8.6945 112.339 7.56176 113.993 6.75148C115.663 5.9412 117.597 5.53606 119.797 5.53606C122.013 5.53606 123.947 5.9412 125.601 6.75148C127.255 7.56176 128.544 8.6945 129.471 10.1497C130.397 11.6049 130.86 13.2999 130.86 15.2346C130.86 17.1694 130.397 18.8643 129.471 20.3195C128.544 21.7747 127.255 22.9075 125.601 23.7177C123.947 24.528 122.013 24.9332 119.797 24.9332ZM119.797 20.3443C121.004 20.3443 122.046 20.1376 122.922 19.7242C123.799 19.3108 124.468 18.7238 124.931 17.9631C125.411 17.2024 125.651 16.2929 125.651 15.2346C125.651 14.1763 125.411 13.2668 124.931 12.5061C124.468 11.7454 123.799 11.1584 122.922 10.745C122.046 10.3316 121.004 10.1249 119.797 10.1249C118.606 10.1249 117.573 10.3316 116.696 10.745C115.82 11.1584 115.142 11.7454 114.662 12.5061C114.183 13.2668 113.943 14.1763 113.943 15.2346C113.943 16.2929 114.183 17.2024 114.662 17.9631C115.142 18.7238 115.82 19.3108 116.696 19.7242C117.573 20.1376 118.606 20.3443 119.797 20.3443Z" fill="#21262B"/>
<path d="M96.3603 24.9332C94.1609 24.9332 92.2262 24.528 90.556 23.7177C88.9024 22.9075 87.6125 21.7747 86.6865 20.3195C85.777 18.8643 85.3223 17.1694 85.3223 15.2346C85.3223 13.2999 85.777 11.6049 86.6865 10.1497C87.6125 8.6945 88.9024 7.56176 90.556 6.75148C92.2262 5.9412 94.1609 5.53606 96.3603 5.53606C98.5761 5.53606 100.511 5.9412 102.165 6.75148C103.818 7.56176 105.108 8.6945 106.034 10.1497C106.96 11.6049 107.423 13.2999 107.423 15.2346C107.423 17.1694 106.96 18.8643 106.034 20.3195C105.108 21.7747 103.818 22.9075 102.165 23.7177C100.511 24.528 98.5761 24.9332 96.3603 24.9332ZM96.3603 20.3443C97.5674 20.3443 98.6092 20.1376 99.4856 19.7242C100.362 19.3108 101.032 18.7238 101.495 17.9631C101.974 17.2024 102.214 16.2929 102.214 15.2346C102.214 14.1763 101.974 13.2668 101.495 12.5061C101.032 11.7454 100.362 11.1584 99.4856 10.745C98.6092 10.3316 97.5674 10.1249 96.3603 10.1249C95.1696 10.1249 94.1361 10.3316 93.2597 10.745C92.3833 11.1584 91.7053 11.7454 91.2257 12.5061C90.7462 13.2668 90.5064 14.1763 90.5064 15.2346C90.5064 16.2929 90.7462 17.2024 91.2257 17.9631C91.7053 18.7238 92.3833 19.3108 93.2597 19.7242C94.1361 20.1376 95.1696 20.3443 96.3603 20.3443Z" fill="#21262B"/>
<path d="M69.3039 14.0688H76.0755C76.9023 14.0688 77.5472 13.8786 78.0102 13.4983C78.4733 13.1179 78.7048 12.5888 78.7048 11.9108C78.7048 11.2163 78.4733 10.6871 78.0102 10.3233C77.5472 9.94296 76.9023 9.75279 76.0755 9.75279H68.5845L70.8914 7.29715V24.5363H65.7568V5.9329H76.7948C78.2169 5.9329 79.4572 6.18922 80.5155 6.70184C81.5738 7.19793 82.4006 7.89246 82.9959 8.78542C83.5913 9.66184 83.8889 10.7036 83.8889 11.9108C83.8889 13.0849 83.5913 14.1184 82.9959 15.0113C82.4006 15.9043 81.5738 16.5988 80.5155 17.0949C79.4572 17.591 78.2169 17.8391 76.7948 17.8391H69.3039V14.0688ZM72.082 15.8299H77.8614L84.5338 24.5363H78.5807L72.082 15.8299Z" fill="#21262B"/>
<path d="M194.606 39.2849V31.9237H196.271V38.4395L195.764 38.3224L200.797 31.9237H202.982V39.2849H201.317V32.678L201.838 32.8081L196.739 39.2849H194.606Z" fill="#939393"/>
<path d="M185.729 39.2849V31.9237H187.42V37.8542L186.913 37.6722L191.608 31.9237H193.532L187.29 39.2849H185.729ZM191.79 39.2849L189.501 35.6433L190.684 34.5768L193.766 39.2849H191.79Z" fill="#939393"/>
<path d="M179.868 39.4669C178.975 39.4669 178.19 39.3065 177.514 38.9857C176.846 38.6563 176.322 38.2011 175.94 37.6201C175.567 37.0392 175.381 36.3673 175.381 35.6043C175.381 34.8326 175.567 34.1607 175.94 33.5884C176.322 33.0075 176.846 32.5566 177.514 32.2358C178.19 31.9064 178.975 31.7416 179.868 31.7416C180.761 31.7416 181.541 31.9064 182.209 32.2358C182.885 32.5566 183.41 33.0075 183.782 33.5884C184.164 34.1607 184.355 34.8326 184.355 35.6043C184.355 36.3673 184.164 37.0392 183.782 37.6201C183.41 38.2011 182.885 38.6563 182.209 38.9857C181.541 39.3065 180.761 39.4669 179.868 39.4669ZM179.868 38.1404C180.44 38.1404 180.93 38.0363 181.337 37.8282C181.754 37.6201 182.074 37.3297 182.3 36.9569C182.525 36.5754 182.638 36.1245 182.638 35.6043C182.638 35.0841 182.525 34.6375 182.3 34.2647C182.074 33.8832 181.754 33.5884 181.337 33.3803C180.93 33.1722 180.44 33.0682 179.868 33.0682C179.304 33.0682 178.814 33.1722 178.398 33.3803C177.982 33.5884 177.661 33.8832 177.436 34.2647C177.21 34.6375 177.098 35.0841 177.098 35.6043C177.098 36.1245 177.21 36.5754 177.436 36.9569C177.661 37.3297 177.982 37.6201 178.398 37.8282C178.814 38.0363 179.304 38.1404 179.868 38.1404Z" fill="#939393"/>
<path d="M165.573 31.9237H167.263V34.4858L167.185 34.7459V36.2285L167.263 36.6837V41.4308H165.573V31.9237ZM166.613 35.6043C166.778 34.8239 167.051 34.1477 167.433 33.5754C167.814 32.9945 168.282 32.5436 168.837 32.2228C169.401 31.902 170.025 31.7416 170.71 31.7416C171.43 31.7416 172.067 31.9064 172.622 32.2358C173.177 32.5566 173.61 33.0075 173.922 33.5884C174.234 34.1607 174.391 34.8326 174.391 35.6043C174.391 36.3673 174.234 37.0392 173.922 37.6201C173.61 38.2011 173.177 38.6563 172.622 38.9857C172.067 39.3065 171.43 39.4669 170.71 39.4669C170.025 39.4669 169.405 39.3065 168.85 38.9857C168.295 38.6649 167.823 38.2141 167.433 37.6332C167.051 37.0522 166.778 36.3759 166.613 35.6043ZM172.674 35.6043C172.674 35.1101 172.57 34.6765 172.362 34.3037C172.162 33.9222 171.885 33.6274 171.529 33.4193C171.174 33.2026 170.766 33.0942 170.307 33.0942C169.847 33.0942 169.414 33.2026 169.006 33.4193C168.607 33.6274 168.256 33.9222 167.953 34.3037C167.649 34.6765 167.402 35.1101 167.211 35.6043C167.402 36.0985 167.649 36.5363 167.953 36.9178C168.256 37.2907 168.607 37.5855 169.006 37.8022C169.414 38.0103 169.847 38.1144 170.307 38.1144C170.766 38.1144 171.174 38.0103 171.529 37.8022C171.885 37.5855 172.162 37.2907 172.362 36.9178C172.57 36.5363 172.674 36.0985 172.674 35.6043Z" fill="#939393"/>
<path d="M158.651 31.8717L159.496 32.0277L160.341 31.8717V39.2849H158.651V31.8717ZM159.496 30.9483C159.175 30.9483 158.911 30.8616 158.703 30.6882C158.495 30.5061 158.391 30.272 158.391 29.9859C158.391 29.6997 158.495 29.47 158.703 29.2966C158.911 29.1145 159.175 29.0235 159.496 29.0235C159.826 29.0235 160.09 29.1145 160.289 29.2966C160.498 29.47 160.602 29.6997 160.602 29.9859C160.602 30.272 160.498 30.5061 160.289 30.6882C160.09 30.8616 159.826 30.9483 159.496 30.9483Z" fill="#939393"/>
<path d="M157.581 31.9237V33.2503H152.677L153.458 32.4699V39.2849H151.767V31.9237H157.581Z" fill="#939393"/>
<path d="M142.327 39.2849L142.704 35.6043L142.327 31.9237H147.659C148.37 31.9237 148.925 32.0884 149.324 32.4179C149.731 32.7474 149.935 33.2026 149.935 33.7835C149.935 34.3211 149.731 34.7546 149.324 35.084C148.925 35.4048 148.366 35.5956 147.646 35.6563L147.776 35.3442C148.626 35.3615 149.276 35.5349 149.727 35.8644C150.178 36.1939 150.403 36.6577 150.403 37.256C150.403 37.8889 150.173 38.3875 149.714 38.7516C149.263 39.1071 148.634 39.2849 147.828 39.2849H142.327ZM143.965 38.8687L143.315 38.1143H147.399C147.858 38.1143 148.188 38.0276 148.387 37.8542C148.595 37.6722 148.699 37.4207 148.699 37.0999C148.699 36.8138 148.582 36.5754 148.348 36.3846C148.123 36.1939 147.741 36.0985 147.204 36.0985H143.679V35.006H146.957C147.399 35.006 147.72 34.9193 147.919 34.7459C148.127 34.5638 148.231 34.3297 148.231 34.0436C148.231 33.7661 148.14 33.5407 147.958 33.3673C147.785 33.1852 147.49 33.0942 147.074 33.0942H143.328L143.965 32.3529L144.33 35.6043L143.965 38.8687Z" fill="#939393"/>
<path d="M136.634 39.4669C135.741 39.4669 134.957 39.3065 134.28 38.9857C133.613 38.6563 133.088 38.2011 132.707 37.6201C132.334 37.0392 132.147 36.3673 132.147 35.6043C132.147 34.8326 132.334 34.1607 132.707 33.5884C133.088 33.0075 133.613 32.5566 134.28 32.2358C134.957 31.9064 135.741 31.7416 136.634 31.7416C137.527 31.7416 138.308 31.9064 138.975 32.2358C139.652 32.5566 140.176 33.0075 140.549 33.5884C140.931 34.1607 141.121 34.8326 141.121 35.6043C141.121 36.3673 140.931 37.0392 140.549 37.6201C140.176 38.2011 139.652 38.6563 138.975 38.9857C138.308 39.3065 137.527 39.4669 136.634 39.4669ZM136.634 38.1404C137.207 38.1404 137.697 38.0363 138.104 37.8282C138.52 37.6201 138.841 37.3297 139.066 36.9569C139.292 36.5754 139.405 36.1245 139.405 35.6043C139.405 35.0841 139.292 34.6375 139.066 34.2647C138.841 33.8832 138.52 33.5884 138.104 33.3803C137.697 33.1722 137.207 33.0682 136.634 33.0682C136.071 33.0682 135.581 33.1722 135.165 33.3803C134.749 33.5884 134.428 33.8832 134.202 34.2647C133.977 34.6375 133.864 35.0841 133.864 35.6043C133.864 36.1245 133.977 36.5754 134.202 36.9569C134.428 37.3297 134.749 37.6201 135.165 37.8282C135.581 38.0363 136.071 38.1404 136.634 38.1404Z" fill="#939393"/>
<path d="M131.542 37.9843V41.1446H130.072V39.2849H122.711V41.1446H121.242V37.9843H123.141L123.609 38.0103H128.98L129.396 37.9843H131.542ZM122.88 31.9237H130.177V38.7906H128.486V32.4439L129.266 33.2242H123.765L124.493 32.652C124.536 33.0335 124.562 33.402 124.571 33.7575C124.588 34.1043 124.597 34.4294 124.597 34.7329C124.597 35.9988 124.424 36.9915 124.077 37.7112C123.739 38.4308 123.262 38.7906 122.646 38.7906L121.957 38.2054C122.668 37.6852 123.023 36.4193 123.023 34.4078C123.023 34.0176 123.01 33.6144 122.984 33.1982C122.958 32.7734 122.924 32.3485 122.88 31.9237Z" fill="#939393"/>
<path d="M115.439 39.2849L115.153 36.5537L115.491 35.6043L115.153 34.6679L115.439 31.9237H117.182L116.791 35.6043L117.182 39.2849H115.439ZM115.959 35.6043C115.794 36.3759 115.521 37.0522 115.14 37.6332C114.758 38.2141 114.286 38.6649 113.722 38.9857C113.167 39.3065 112.547 39.4669 111.862 39.4669C111.143 39.4669 110.505 39.3065 109.95 38.9857C109.395 38.6563 108.962 38.2011 108.65 37.6201C108.338 37.0392 108.182 36.3673 108.182 35.6043C108.182 34.8326 108.338 34.1607 108.65 33.5884C108.962 33.0075 109.395 32.5566 109.95 32.2358C110.505 31.9064 111.143 31.7416 111.862 31.7416C112.547 31.7416 113.167 31.902 113.722 32.2228C114.286 32.5436 114.758 32.9945 115.14 33.5754C115.53 34.1477 115.803 34.8239 115.959 35.6043ZM109.898 35.6043C109.898 36.0985 109.998 36.5363 110.198 36.9178C110.406 37.2907 110.687 37.5855 111.043 37.8022C111.398 38.0103 111.806 38.1144 112.265 38.1144C112.734 38.1144 113.167 38.0103 113.566 37.8022C113.965 37.5855 114.316 37.2907 114.619 36.9178C114.932 36.5363 115.179 36.0985 115.361 35.6043C115.179 35.1101 114.932 34.6765 114.619 34.3037C114.316 33.9222 113.965 33.6274 113.566 33.4193C113.167 33.2026 112.734 33.0942 112.265 33.0942C111.806 33.0942 111.398 33.2026 111.043 33.4193C110.687 33.6274 110.406 33.9222 110.198 34.3037C109.998 34.6765 109.898 35.1101 109.898 35.6043Z" fill="#939393"/>
<path d="M98.8428 31.9237H100.52V39.2849H98.8428V31.9237ZM105.098 31.9237H106.776V39.2849H105.098V31.9237ZM99.7922 34.902H105.801V36.2025H99.7922V34.902Z" fill="#939393"/>
<path d="M86.2466 39.2849L89.7971 35.084L89.7841 35.9164L86.4547 31.9237H88.3925L90.9156 34.915H90.2003L92.7364 31.9237H94.6092L91.2147 35.9424L91.1497 34.967L94.8173 39.2849H92.8794L90.1222 36.0595H90.8636L88.1324 39.2849H86.2466Z" fill="#939393"/>
<path d="M83.8518 39.2849L83.5657 36.5537L83.9039 35.6043L83.5657 34.6679L83.8518 31.9237H85.5946L85.2044 35.6043L85.5946 39.2849H83.8518ZM84.3721 35.6043C84.2073 36.3759 83.9342 37.0522 83.5527 37.6332C83.1712 38.2141 82.6987 38.6649 82.1351 38.9857C81.5802 39.3065 80.9603 39.4669 80.2753 39.4669C79.5557 39.4669 78.9184 39.3065 78.3635 38.9857C77.8086 38.6563 77.3751 38.2011 77.0629 37.6201C76.7508 37.0392 76.5947 36.3673 76.5947 35.6043C76.5947 34.8326 76.7508 34.1607 77.0629 33.5884C77.3751 33.0075 77.8086 32.5566 78.3635 32.2358C78.9184 31.9064 79.5557 31.7416 80.2753 31.7416C80.9603 31.7416 81.5802 31.902 82.1351 32.2228C82.6987 32.5436 83.1712 32.9945 83.5527 33.5754C83.9429 34.1477 84.216 34.8239 84.3721 35.6043ZM78.3115 35.6043C78.3115 36.0985 78.4112 36.5363 78.6106 36.9178C78.8187 37.2907 79.1005 37.5855 79.456 37.8022C79.8114 38.0103 80.219 38.1144 80.6785 38.1144C81.1467 38.1144 81.5802 38.0103 81.979 37.8022C82.3779 37.5855 82.729 37.2907 83.0325 36.9178C83.3446 36.5363 83.5917 36.0985 83.7738 35.6043C83.5917 35.1101 83.3446 34.6765 83.0325 34.3037C82.729 33.9222 82.3779 33.6274 81.979 33.4193C81.5802 33.2026 81.1467 33.0942 80.6785 33.0942C80.219 33.0942 79.8114 33.2026 79.456 33.4193C79.1005 33.6274 78.8187 33.9222 78.6106 34.3037C78.4112 34.6765 78.3115 35.1101 78.3115 35.6043Z" fill="#939393"/>
<path d="M75.9254 37.9843V41.1446H74.4558V39.2849H67.0946V41.1446H65.625V37.9843H67.5238L67.992 38.0103H73.3633L73.7795 37.9843H75.9254ZM67.2637 31.9237H74.5598V38.7906H72.8691V32.4439L73.6494 33.2242H68.1481L68.8764 32.652C68.9197 33.0335 68.9458 33.402 68.9544 33.7575C68.9718 34.1043 68.9804 34.4294 68.9804 34.7329C68.9804 35.9988 68.807 36.9915 68.4602 37.7112C68.1221 38.4308 67.6452 38.7906 67.0296 38.7906L66.3403 38.2054C67.0513 37.6852 67.4068 36.4193 67.4068 34.4078C67.4068 34.0176 67.3938 33.6144 67.3677 33.1982C67.3417 32.7734 67.3071 32.3485 67.2637 31.9237Z" fill="#939393"/>
<path d="M42.4404 33.7877L23.3271 14.817L31.0265 14.6145L50.545 33.7877H43.7912H42.4404Z" fill="#FF6801"/>
<path d="M52.8404 34.7263H42.0543L21.1084 13.9365L31.4006 13.6658L52.8404 34.7263ZM23.3278 14.8171L42.4411 33.7877H50.5456L31.0272 14.6145L23.3278 14.8171Z" fill="white"/>
<path d="M52.7647 33.7877L33.6514 14.6145H41.3507L60.8692 33.7877H54.1154H52.7647Z" fill="#FF6801"/>
<path d="M41.7347 13.676L63.1642 34.7263H52.3752L31.3906 13.676H41.7347ZM33.6515 14.6146L52.7648 33.7878H60.8694L41.3509 14.6146H33.6515Z" fill="white"/>
<circle cx="31.3048" cy="23.9999" r="20.5978" stroke="white" stroke-width="6"/>
<path d="M54.0983 24.0001C54.0983 36.5885 43.8934 46.7934 31.305 46.7934C18.7166 46.7934 8.51172 36.5885 8.51172 24.0001C8.51172 11.4117 18.7166 1.20679 31.305 1.20679C43.8934 1.20679 54.0983 11.4117 54.0983 24.0001ZM15.8056 24.0001C15.8056 32.5602 22.7449 39.4995 31.305 39.4995C39.8651 39.4995 46.8045 32.5602 46.8045 24.0001C46.8045 15.44 39.8651 8.50064 31.305 8.50064C22.7449 8.50064 15.8056 15.44 15.8056 24.0001Z" fill="#FF6801"/>
<path d="M54.099 24C54.099 11.4116 43.8941 1.2067 31.3057 1.2067C18.7173 1.2067 8.51237 11.4116 8.51237 24C8.51237 36.5884 18.7173 46.7933 31.3057 46.7933C43.8941 46.7933 54.099 36.5884 54.099 24ZM45.5984 24C45.5984 16.1063 39.1993 9.70732 31.3057 9.70732C23.412 9.70732 17.013 16.1063 17.013 24C17.013 31.8937 23.412 38.2927 31.3057 38.2927V39.4994C22.8124 39.4994 15.9147 32.6681 15.8075 24.2003L15.8063 24C15.8063 15.4399 22.7456 8.50061 31.3057 8.50061L31.506 8.50179C39.9738 8.60905 46.8051 15.5068 46.8051 24C46.8051 32.5601 39.8658 39.4994 31.3057 39.4994V38.2927C39.1993 38.2927 45.5984 31.8937 45.5984 24ZM55.3057 24C55.3057 37.2548 44.5605 48 31.3057 48C18.0508 48 7.30566 37.2548 7.30566 24C7.30566 10.7452 18.0508 0 31.3057 0C44.5605 0 55.3057 10.7452 55.3057 24Z" fill="white"/>
<path d="M40.2215 33.7878H32.1483L21.1821 23.0615L10.4178 33.7878H2.27734L21.1821 15.0168L40.2215 33.7878Z" fill="#FF6801"/>
<path d="M42.5101 34.7261H31.7654L21.1882 24.3801L10.8055 34.7261H0L21.1796 13.6963L42.5101 34.7261ZM2.27723 33.7876H10.4178L21.182 23.0613L32.1481 33.7876H40.2214L21.182 15.0166L2.27723 33.7876Z" fill="white"/>
<path d="M19 27H23V31H19V27Z" fill="#FF6801"/>
</svg>
